<?xml version="1.0" encoding="UTF-8" standalone="no"?>
<!DOCTYPE svg PUBLIC "-//W3C//DTD SVG 1.1//EN"
 "http://www.w3.org/Graphics/SVG/1.1/DTD/svg11.dtd">
<!-- Generated by graphviz version 2.40.1 (20161225.0304)
 -->
<!-- Title: %3 Pages: 1 -->
<svg width="622pt" height="404pt"
 viewBox="0.00 0.00 622.32 404.00" xmlns="http://www.w3.org/2000/svg" xmlns:xlink="http://www.w3.org/1999/xlink">
<g id="graph0" class="graph" transform="scale(1 1) rotate(0) translate(4 400)">
<title>%3</title>
<polygon fill="#ffffff" stroke="transparent" points="-4,4 -4,-400 618.3235,-400 618.3235,4 -4,4"/>
<!-- [root] aws_instance.secondserver -->
<g id="node1" class="node">
<title>[root] aws_instance.secondserver</title>
<polygon fill="none" stroke="#000000" points="538.7907,-252 375.7907,-252 375.7907,-216 538.7907,-216 538.7907,-252"/>
<text text-anchor="middle" x="457.2907" y="-230.3" font-family="Times,serif" font-size="14.00" fill="#000000">aws_instance.secondserver</text>
</g>
<!-- [root] aws_subnet.subnet2 -->
<g id="node4" class="node">
<title>[root] aws_subnet.subnet2</title>
<polygon fill="none" stroke="#000000" points="420.7907,-180 295.7907,-180 295.7907,-144 420.7907,-144 420.7907,-180"/>
<text text-anchor="middle" x="358.2907" y="-158.3" font-family="Times,serif" font-size="14.00" fill="#000000">aws_subnet.subnet2</text>
</g>
<!-- [root] aws_instance.secondserver&#45;&gt;[root] aws_subnet.subnet2 -->
<g id="edge1" class="edge">
<title>[root] aws_instance.secondserver&#45;&gt;[root] aws_subnet.subnet2</title>
<path fill="none" stroke="#000000" d="M432.3088,-215.8314C419.9978,-206.8779 404.9799,-195.9558 391.6969,-186.2955"/>
<polygon fill="#000000" stroke="#000000" points="393.4105,-183.214 383.2645,-180.1628 389.2933,-188.8752 393.4105,-183.214"/>
</g>
<!-- [root] data.aws_ami.ubuntu -->
<g id="node6" class="node">
<title>[root] data.aws_ami.ubuntu</title>
<polygon fill="none" stroke="#000000" points="501.7907,-108 368.7907,-108 368.7907,-72 501.7907,-72 501.7907,-108"/>
<text text-anchor="middle" x="435.2907" y="-86.3" font-family="Times,serif" font-size="14.00" fill="#000000">data.aws_ami.ubuntu</text>
</g>
<!-- [root] aws_instance.secondserver&#45;&gt;[root] data.aws_ami.ubuntu -->
<g id="edge2" class="edge">
<title>[root] aws_instance.secondserver&#45;&gt;[root] data.aws_ami.ubuntu</title>
<path fill="none" stroke="#000000" d="M454.5043,-215.7623C450.7519,-191.201 444.0368,-147.2474 439.6225,-118.3541"/>
<polygon fill="#000000" stroke="#000000" points="443.0245,-117.4463 438.0543,-108.0896 436.1048,-118.5035 443.0245,-117.4463"/>
</g>
<!-- [root] aws_security_group.subnetsecurity -->
<g id="node2" class="node">
<title>[root] aws_security_group.subnetsecurity</title>
<polygon fill="none" stroke="#000000" points="357.7907,-252 150.7907,-252 150.7907,-216 357.7907,-216 357.7907,-252"/>
<text text-anchor="middle" x="254.2907" y="-230.3" font-family="Times,serif" font-size="14.00" fill="#000000">aws_security_group.subnetsecurity</text>
</g>
<!-- [root] aws_vpc.new_environment -->
<g id="node5" class="node">
<title>[root] aws_vpc.new_environment</title>
<polygon fill="none" stroke="#000000" points="347.2907,-108 181.2907,-108 181.2907,-72 347.2907,-72 347.2907,-108"/>
<text text-anchor="middle" x="264.2907" y="-86.3" font-family="Times,serif" font-size="14.00" fill="#000000">aws_vpc.new_environment</text>
</g>
<!-- [root] aws_security_group.subnetsecurity&#45;&gt;[root] aws_vpc.new_environment -->
<g id="edge3" class="edge">
<title>[root] aws_security_group.subnetsecurity&#45;&gt;[root] aws_vpc.new_environment</title>
<path fill="none" stroke="#000000" d="M255.5572,-215.7623C257.2628,-191.201 260.3151,-147.2474 262.3216,-118.3541"/>
<polygon fill="#000000" stroke="#000000" points="265.8332,-118.3081 263.0344,-108.0896 258.85,-117.8231 265.8332,-118.3081"/>
</g>
<!-- [root] aws_subnet.subnet1 -->
<g id="node3" class="node">
<title>[root] aws_subnet.subnet1</title>
<polygon fill="none" stroke="#000000" points="132.7907,-252 7.7907,-252 7.7907,-216 132.7907,-216 132.7907,-252"/>
<text text-anchor="middle" x="70.2907" y="-230.3" font-family="Times,serif" font-size="14.00" fill="#000000">aws_subnet.subnet1</text>
</g>
<!-- [root] aws_subnet.subnet1&#45;&gt;[root] aws_vpc.new_environment -->
<g id="edge4" class="edge">
<title>[root] aws_subnet.subnet1&#45;&gt;[root] aws_vpc.new_environment</title>
<path fill="none" stroke="#000000" d="M94.8609,-215.7623C129.5538,-190.0108 192.966,-142.942 231.602,-114.2637"/>
<polygon fill="#000000" stroke="#000000" points="233.9763,-116.8602 239.9199,-108.0896 229.8041,-111.2394 233.9763,-116.8602"/>
</g>
<!-- [root] aws_subnet.subnet2&#45;&gt;[root] aws_vpc.new_environment -->
<g id="edge5" class="edge">
<title>[root] aws_subnet.subnet2&#45;&gt;[root] aws_vpc.new_environment</title>
<path fill="none" stroke="#000000" d="M334.5705,-143.8314C322.8813,-134.8779 308.6219,-123.9558 296.0098,-114.2955"/>
<polygon fill="#000000" stroke="#000000" points="298.0703,-111.4651 288.0032,-108.1628 293.8138,-117.0222 298.0703,-111.4651"/>
</g>
<!-- [root] provider.aws -->
<g id="node7" class="node">
<title>[root] provider.aws</title>
<polygon fill="none" stroke="#000000" points="348.2907,-36 268.3573,-18 348.2907,0 428.224,-18 348.2907,-36"/>
<text text-anchor="middle" x="348.2907" y="-14.3" font-family="Times,serif" font-size="14.00" fill="#000000">provider.aws</text>
</g>
<!-- [root] aws_vpc.new_environment&#45;&gt;[root] provider.aws -->
<g id="edge6" class="edge">
<title>[root] aws_vpc.new_environment&#45;&gt;[root] provider.aws</title>
<path fill="none" stroke="#000000" d="M285.4874,-71.8314C297.2089,-61.7844 311.8224,-49.2585 324.0028,-38.8182"/>
<polygon fill="#000000" stroke="#000000" points="326.286,-41.4709 331.6008,-32.3056 321.7304,-36.1561 326.286,-41.4709"/>
</g>
<!-- [root] data.aws_ami.ubuntu&#45;&gt;[root] provider.aws -->
<g id="edge7" class="edge">
<title>[root] data.aws_ami.ubuntu&#45;&gt;[root] provider.aws</title>
<path fill="none" stroke="#000000" d="M413.3369,-71.8314C401.1968,-61.7844 386.0613,-49.2585 373.4459,-38.8182"/>
<polygon fill="#000000" stroke="#000000" points="375.512,-35.9849 365.5766,-32.3056 371.049,-41.3777 375.512,-35.9849"/>
</g>
<!-- [root] meta.count&#45;boundary (count boundary fixup) -->
<g id="node8" class="node">
<title>[root] meta.count&#45;boundary (count boundary fixup)</title>
<ellipse fill="none" stroke="#000000" cx="421.2907" cy="-306" rx="193.0657" ry="18"/>
<text text-anchor="middle" x="421.2907" y="-302.3" font-family="Times,serif" font-size="14.00" fill="#000000">[root] meta.count&#45;boundary (count boundary fixup)</text>
</g>
<!-- [root] meta.count&#45;boundary (count boundary fixup)&#45;&gt;[root] aws_instance.secondserver -->
<g id="edge8" class="edge">
<title>[root] meta.count&#45;boundary (count boundary fixup)&#45;&gt;[root] aws_instance.secondserver</title>
<path fill="none" stroke="#000000" d="M430.375,-287.8314C434.3521,-279.8771 439.1061,-270.369 443.5045,-261.5723"/>
<polygon fill="#000000" stroke="#000000" points="446.7423,-262.9228 448.084,-252.4133 440.4813,-259.7923 446.7423,-262.9228"/>
</g>
<!-- [root] meta.count&#45;boundary (count boundary fixup)&#45;&gt;[root] aws_security_group.subnetsecurity -->
<g id="edge9" class="edge">
<title>[root] meta.count&#45;boundary (count boundary fixup)&#45;&gt;[root] aws_security_group.subnetsecurity</title>
<path fill="none" stroke="#000000" d="M380.4379,-288.3868C357.8475,-278.6472 329.5643,-266.4533 305.5071,-256.0813"/>
<polygon fill="#000000" stroke="#000000" points="306.742,-252.8023 296.1733,-252.0572 303.9705,-259.2304 306.742,-252.8023"/>
</g>
<!-- [root] meta.count&#45;boundary (count boundary fixup)&#45;&gt;[root] aws_subnet.subnet1 -->
<g id="edge10" class="edge">
<title>[root] meta.count&#45;boundary (count boundary fixup)&#45;&gt;[root] aws_subnet.subnet1</title>
<path fill="none" stroke="#000000" d="M331.4868,-290.0451C279.007,-280.3991 211.2877,-267.4019 143.0357,-252.3356"/>
<polygon fill="#000000" stroke="#000000" points="143.4847,-248.8501 132.9636,-250.0978 141.9664,-255.6835 143.4847,-248.8501"/>
</g>
<!-- [root] provider.aws (close) -->
<g id="node9" class="node">
<title>[root] provider.aws (close)</title>
<ellipse fill="none" stroke="#000000" cx="105.2907" cy="-306" rx="105.0817" ry="18"/>
<text text-anchor="middle" x="105.2907" y="-302.3" font-family="Times,serif" font-size="14.00" fill="#000000">[root] provider.aws (close)</text>
</g>
<!-- [root] provider.aws (close)&#45;&gt;[root] aws_instance.secondserver -->
<g id="edge11" class="edge">
<title>[root] provider.aws (close)&#45;&gt;[root] aws_instance.secondserver</title>
<path fill="none" stroke="#000000" d="M173.1598,-292.1177C227.946,-280.9114 305.5555,-265.0367 365.8223,-252.7094"/>
<polygon fill="#000000" stroke="#000000" points="366.6235,-256.1181 375.7193,-250.6851 365.2207,-249.2601 366.6235,-256.1181"/>
</g>
<!-- [root] provider.aws (close)&#45;&gt;[root] aws_security_group.subnetsecurity -->
<g id="edge12" class="edge">
<title>[root] provider.aws (close)&#45;&gt;[root] aws_security_group.subnetsecurity</title>
<path fill="none" stroke="#000000" d="M140.6016,-288.937C160.7067,-279.2218 186.135,-266.9343 207.8425,-256.4448"/>
<polygon fill="#000000" stroke="#000000" points="209.4104,-259.5744 216.8915,-252.0721 206.3648,-253.2716 209.4104,-259.5744"/>
</g>
<!-- [root] provider.aws (close)&#45;&gt;[root] aws_subnet.subnet1 -->
<g id="edge13" class="edge">
<title>[root] provider.aws (close)&#45;&gt;[root] aws_subnet.subnet1</title>
<path fill="none" stroke="#000000" d="M96.4587,-287.8314C92.592,-279.8771 87.97,-270.369 83.6939,-261.5723"/>
<polygon fill="#000000" stroke="#000000" points="86.7613,-259.8768 79.2416,-252.4133 80.4657,-262.9371 86.7613,-259.8768"/>
</g>
<!-- [root] root -->
<g id="node10" class="node">
<title>[root] root</title>
<ellipse fill="none" stroke="#000000" cx="263.2907" cy="-378" rx="47.3916" ry="18"/>
<text text-anchor="middle" x="263.2907" y="-374.3" font-family="Times,serif" font-size="14.00" fill="#000000">[root] root</text>
</g>
<!-- [root] root&#45;&gt;[root] meta.count&#45;boundary (count boundary fixup) -->
<g id="edge14" class="edge">
<title>[root] root&#45;&gt;[root] meta.count&#45;boundary (count boundary fixup)</title>
<path fill="none" stroke="#000000" d="M293.7546,-364.1177C316.2768,-353.8544 347.3918,-339.6754 373.2499,-327.892"/>
<polygon fill="#000000" stroke="#000000" points="374.8647,-331.0025 382.5131,-323.6708 371.962,-324.6327 374.8647,-331.0025"/>
</g>
<!-- [root] root&#45;&gt;[root] provider.aws (close) -->
<g id="edge15" class="edge">
<title>[root] root&#45;&gt;[root] provider.aws (close)</title>
<path fill="none" stroke="#000000" d="M232.8267,-364.1177C209.8253,-353.6361 177.8616,-339.0703 151.6882,-327.1432"/>
<polygon fill="#000000" stroke="#000000" points="152.8857,-323.8427 142.3346,-322.8808 149.983,-330.2125 152.8857,-323.8427"/>
</g>
</g>
</svg>
